<?xml version="1.0" standalone="no"?>
<!DOCTYPE svg PUBLIC "-//W3C//DTD SVG 20010904//EN"
 "http://www.w3.org/TR/2001/REC-SVG-20010904/DTD/svg10.dtd">
<svg version="1.0" xmlns="http://www.w3.org/2000/svg"
 width="512.000000pt" height="512.000000pt" viewBox="0 0 512.000000 512.000000"
 preserveAspectRatio="xMidYMid meet">
<metadata>
Created by potrace 1.14, written by Peter Selinger 2001-2017
</metadata>
<g transform="translate(0.000000,512.000000) scale(0.100000,-0.100000)"
fill="#000000" stroke="none">
<path d="M3490 2859 c-7 -11 -10 -22 -8 -25 2 -2 37 -19 78 -37 72 -34 74 -34
129 -21 31 7 73 17 94 20 21 4 35 10 30 14 -4 4 -46 20 -93 37 -80 29 -140 38
-140 21 0 -5 0 -11 0 -15 0 -5 5 -1 10 7 8 13 10 13 10 -1 0 -14 -10 -17 -55
-17 -50 1 -53 2 -44 19 5 11 7 19 5 19 -3 0 -10 -9 -16 -21z m164 -10 c-6 -11
-24 -2 -24 11 0 5 7 7 15 4 8 -4 12 -10 9 -15z"/>
<path d="M3446 2861 c-4 -5 3 -7 14 -4 23 6 26 13 6 13 -8 0 -17 -4 -20 -9z"/>
<path d="M3518 2853 c6 -2 18 -2 25 0 6 3 1 5 -13 5 -14 0 -19 -2 -12 -5z"/>
<path d="M3208 2813 c7 -3 16 -2 19 1 4 3 -2 6 -13 5 -11 0 -14 -3 -6 -6z"/>
<path d="M3220 2799 c-25 -5 -61 -7 -80 -5 -26 4 -30 3 -15 -4 11 -5 14 -9 7
-9 -7 -1 -10 -6 -6 -13 5 -7 3 -8 -7 -2 -8 4 -27 8 -44 7 -29 -2 -29 -2 -5 6
20 7 21 9 5 9 -27 0 -76 -16 -53 -17 9 -1 19 -5 23 -10 5 -10 -11 -9 -50 3
-11 4 2 -5 29 -18 28 -14 54 -22 59 -19 6 3 7 1 4 -4 -4 -6 17 -20 49 -33 l56
-23 134 28 c74 15 133 29 132 30 -5 4 -190 85 -192 84 0 -1 -21 -5 -46 -10z
m0 -13 c0 -2 -7 -7 -16 -10 -8 -3 -12 -2 -9 4 6 10 25 14 25 6z"/>
<path d="M3903 2717 c-50 -12 -94 -25 -98 -28 -3 -3 32 -23 78 -43 l83 -38
100 27 c54 14 106 29 114 32 14 5 -151 72 -175 72 -5 -1 -51 -11 -102 -22z"/>
<path d="M1980 2725 c0 -16 66 -134 87 -156 l24 -26 -27 5 c-15 3 -24 1 -21
-4 3 -5 -16 -7 -41 -6 -53 4 -51 -1 20 -45 47 -28 50 -29 132 -20 81 8 86 7
142 -21 l58 -30 -39 -5 c-22 -4 -62 -9 -88 -13 l-49 -7 77 -45 77 -45 110 13
c107 12 110 12 158 -10 27 -13 47 -26 45 -30 -3 -4 -37 -11 -77 -14 -40 -4
-88 -10 -106 -14 l-33 -7 86 -51 85 -51 138 23 137 24 105 -37 c58 -20 109
-39 113 -43 5 -4 -9 -10 -30 -13 -21 -3 -130 -21 -243 -40 -380 -65 -693 -94
-815 -75 -66 10 -173 44 -250 79 -67 31 -73 33 -53 16 10 -8 15 -17 12 -20 -8
-8 -34 18 -34 33 0 6 -5 8 -10 5 -6 -4 -8 -11 -5 -16 3 -5 -2 -6 -11 -2 -14 5
-16 2 -12 -15 4 -16 2 -19 -11 -15 -9 3 -20 11 -26 17 -5 6 -19 12 -30 13 -17
1 -17 -1 5 -19 14 -11 19 -17 13 -13 -8 4 -13 0 -13 -9 0 -23 -36 -20 -53 4
-8 12 -19 20 -24 18 -17 -5 -131 75 -261 182 l-122 100 24 -49 c26 -51 175
-197 271 -265 234 -167 421 -270 546 -300 120 -29 356 -13 685 47 l124 23 21
-23 c27 -28 81 -47 111 -38 13 4 33 18 44 32 l22 26 23 -22 c31 -28 74 -27
104 4 27 26 31 46 16 74 -9 15 5 21 127 50 75 19 206 53 291 77 138 40 191 47
191 26 0 -14 -127 -93 -205 -127 -98 -42 -85 -46 23 -6 99 37 203 89 261 131
42 31 43 34 26 46 -22 17 -23 16 42 39 51 18 54 18 90 0 54 -26 206 -32 295
-11 77 18 180 65 224 103 l29 25 -30 -20 c-115 -75 -264 -117 -390 -110 -44 3
-95 11 -114 19 l-34 15 86 41 c96 47 182 122 192 170 10 47 17 53 93 83 40 15
79 33 87 40 18 15 43 92 49 155 l5 50 -11 -47 c-5 -27 -15 -48 -20 -48 -6 0
-7 11 -4 25 5 18 3 24 -6 23 -7 -2 -12 3 -10 10 1 6 -2 12 -8 12 -13 0 -13 -6
0 -31 13 -24 -1 -40 -49 -57 -39 -14 -67 -15 -33 -2 12 5 23 9 25 8 9 -6 47
26 47 40 0 13 -2 14 -9 3 -5 -7 -10 -9 -12 -4 -2 6 -17 13 -34 16 -16 3 -24 4
-17 1 6 -3 12 -14 12 -25 0 -16 -3 -17 -25 -7 -19 9 -22 14 -13 20 10 7 9 8
-2 5 -8 -2 -14 -14 -13 -26 2 -13 -3 -21 -13 -21 -8 0 -12 5 -9 10 3 6 2 10
-4 10 -5 0 -18 3 -28 6 -16 6 -16 5 2 -10 19 -15 19 -16 1 -9 -13 4 -17 3 -12
-5 3 -6 2 -13 -4 -17 -6 -4 -8 -10 -6 -14 3 -4 -19 -7 -47 -7 -29 1 -63 -5
-77 -11 -31 -16 -47 -16 -56 -1 -5 8 -2 9 10 5 10 -4 15 -3 11 3 -3 6 5 10 19
10 14 0 28 5 31 10 9 14 1 13 -110 -19 -55 -15 -180 -50 -277 -76 -102 -28
-174 -53 -171 -58 3 -6 1 -7 -6 -3 -6 4 -84 -9 -173 -29 -175 -40 -249 -44
-316 -21 -23 8 -49 13 -58 9 -13 -5 -13 -7 1 -23 9 -10 12 -21 7 -24 -14 -8
-52 5 -212 74 -80 35 -156 64 -169 66 -12 1 -33 11 -45 21 -11 10 -37 26 -56
35 -383 187 -470 224 -470 198 0 -6 4 -9 8 -6 4 2 8 -4 8 -14 0 -26 -8 -18
-35 34 -20 41 -31 55 -31 41z m105 -65 c3 -5 1 -10 -4 -10 -6 0 -11 5 -11 10
0 6 2 10 4 10 3 0 8 -4 11 -10z m2155 -140 c0 -5 -4 -10 -10 -10 -5 0 -10 5
-10 10 0 6 5 10 10 10 6 0 10 -4 10 -10z m-303 -55 c0 -8 -6 -15 -13 -15 -18
0 -27 17 -12 23 21 9 25 8 25 -8z m-90 -27 c-3 -8 -6 -5 -6 6 -1 11 2 17 5 13
3 -3 4 -12 1 -19z m-34 -5 c-7 -2 -21 -2 -30 0 -10 3 -4 5 12 5 17 0 24 -2 18
-5z m114 -9 c4 -13 -32 -25 -53 -17 -8 3 -14 12 -14 20 0 17 61 15 67 -3z
m-167 -38 c0 -15 -50 -56 -68 -56 -23 0 -22 21 2 45 27 27 66 34 66 11z m-760
-76 c0 -5 -2 -10 -4 -10 -3 0 -8 5 -11 10 -3 6 -1 10 4 10 6 0 11 -4 11 -10z
m30 -10 c0 -5 -5 -10 -11 -10 -5 0 -7 5 -4 10 3 6 8 10 11 10 2 0 4 -4 4 -10z
m337 -6 c5 -15 -20 -24 -37 -14 -7 4 -9 13 -5 19 8 14 37 11 42 -5z m-103 -30
c9 -3 13 -10 10 -15 -7 -11 -64 -12 -64 -1 0 21 24 28 54 16z m496 -77 c0 -14
-20 -37 -32 -37 -12 0 -10 24 4 38 16 16 28 15 28 -1z m-386 -123 c22 -9 10
-24 -20 -24 -23 0 -31 10 -17 23 8 9 17 9 37 1z m-1687 -10 c-3 -3 -12 -4 -19
-1 -8 3 -5 6 6 6 11 1 17 -2 13 -5z m1343 -28 c0 -17 -46 -56 -66 -56 -26 0
-14 30 19 50 38 24 47 25 47 6z m-1177 -54 c23 -20 22 -42 -2 -42 -27 0 -76
44 -67 59 9 14 43 6 69 -17z m1015 -9 c2 -8 -6 -13 -22 -13 -25 0 -33 10 -19
24 10 10 36 3 41 -11z m-274 1 c22 -9 10 -24 -20 -24 -23 0 -31 10 -17 23 8 9
17 9 37 1z m-433 -39 c0 -5 -7 -12 -16 -13 -23 -5 -47 6 -40 19 8 13 56 8 56
-6z m369 -5 c0 -6 -7 -13 -15 -16 -21 -8 -67 4 -60 16 8 13 75 13 75 0z m480
-54 c0 -17 -14 -29 -23 -20 -8 8 3 34 14 34 5 0 9 -6 9 -14z m-186 -31 c-4 -8
-10 -15 -15 -15 -5 0 -9 7 -9 15 0 8 7 15 15 15 9 0 12 -6 9 -15z"/>
<path d="M2759 2721 c-1 -3 -1 -9 -1 -13 1 -3 -5 -11 -13 -18 -7 -6 -13 -17
-11 -23 1 -7 1 -9 -1 -4 -3 4 -12 7 -21 7 -12 1 -10 5 8 15 14 8 19 14 12 15
-7 0 -11 4 -8 9 3 4 -6 6 -20 3 -20 -3 -23 -7 -12 -14 9 -6 3 -7 -17 -4 -57
11 -59 -9 -3 -35 29 -13 67 -36 84 -51 60 -53 117 -61 161 -24 16 13 44 28 63
33 l34 9 -37 22 c-20 12 -37 28 -37 36 0 27 -56 47 -120 45 -33 -1 -61 -5 -61
-8z m46 -51 c0 -13 -6 -25 -12 -27 -16 -6 -27 21 -19 43 9 23 31 11 31 -16z
m-140 10 c3 -6 -1 -7 -9 -4 -18 7 -21 14 -7 14 6 0 13 -4 16 -10z"/>
<path d="M3467 2630 c-70 -15 -130 -30 -132 -32 -3 -2 40 -26 94 -53 l98 -48
130 32 c71 18 135 36 141 40 8 5 -26 23 -90 49 -57 23 -106 42 -108 41 -3 0
-63 -13 -133 -29z"/>
<path d="M3063 2537 c-51 -12 -93 -24 -93 -27 0 -3 45 -28 100 -55 l100 -49
102 25 103 25 -96 52 c-53 29 -103 51 -110 51 -8 -1 -56 -11 -106 -22z"/>
<path d="M4168 2553 c7 -3 16 -2 19 1 4 3 -2 6 -13 5 -11 0 -14 -3 -6 -6z"/>
<path d="M4136 2539 c4 -8 -1 -9 -17 -4 -16 5 -21 4 -14 -3 17 -17 85 -19 85
-2 0 5 -6 7 -14 4 -8 -3 -17 -1 -21 5 -3 6 -11 11 -16 11 -6 0 -7 -5 -3 -11z"/>
<path d="M1655 2523 c-44 -2 -84 -8 -90 -14 -6 -6 3 -7 25 -3 l35 6 -39 -20
c-33 -18 -40 -19 -52 -7 -12 11 -11 14 4 18 9 3 -2 5 -25 6 -24 0 -42 -2 -42
-6 4 -27 -2 -33 -20 -23 -14 7 -22 7 -26 -1 -4 -6 -13 -8 -21 -5 -29 11 -12
-6 40 -39 l54 -34 248 27 249 28 -57 37 c-62 40 -53 39 -283 30z m95 -11 c0
-4 -10 -9 -22 -9 -18 -2 -20 0 -8 7 18 12 30 13 30 2z m-72 -9 c-10 -2 -26 -2
-35 0 -10 3 -2 5 17 5 19 0 27 -2 18 -5z m-164 -19 c4 -10 1 -14 -6 -12 -15 5
-23 28 -10 28 5 0 13 -7 16 -16z m-64 -24 c0 -5 -4 -10 -9 -10 -6 0 -13 5 -16
10 -3 6 1 10 9 10 9 0 16 -4 16 -10z"/>
<path d="M1350 2496 c0 -2 7 -6 15 -10 8 -3 15 -1 15 4 0 6 -7 10 -15 10 -8 0
-15 -2 -15 -4z"/>
<path d="M1820 2359 c-113 -15 -207 -28 -210 -28 -3 -1 31 -24 74 -52 l79 -50
206 26 c113 15 207 28 209 30 5 4 -135 105 -144 104 -5 -1 -101 -14 -214 -30z"/>
<path d="M2240 2272 c-19 -9 -41 -29 -48 -44 -11 -23 -20 -28 -50 -29 -20 0
-91 -8 -157 -18 l-120 -17 86 -56 87 -57 188 31 c235 37 226 34 192 62 -23 17
-28 30 -28 63 0 74 -72 105 -150 65z m-18 -44 c-7 -7 -12 -8 -12 -2 0 6 3 14
7 17 3 4 9 5 12 2 2 -3 -1 -11 -7 -17z m28 -17 c0 -14 -18 -23 -31 -15 -8 4
-7 9 2 15 18 11 29 11 29 0z"/>
<path d="M1485 2070 c3 -5 8 -10 11 -10 2 0 4 5 4 10 0 6 -5 10 -11 10 -5 0
-7 -4 -4 -10z"/>
<path d="M1314 1895 c16 -10 32 -13 37 -8 5 5 1 9 -9 9 -9 1 -26 4 -37 8 -11
4 -7 0 9 -9z"/>
<path d="M1364 1878 c-4 -6 -2 -8 4 -4 5 3 12 2 14 -2 3 -9 118 -55 124 -50 1
2 -29 17 -67 35 -45 20 -71 28 -75 21z"/>
<path d="M3378 1823 c7 -3 16 -2 19 1 4 3 -2 6 -13 5 -11 0 -14 -3 -6 -6z"/>
<path d="M4010 1763 c-74 -30 -180 -76 -235 -103 -221 -107 -550 -193 -880
-230 -358 -39 -778 -29 -1082 26 -46 8 -88 12 -95 8 -6 -4 -8 -3 -5 3 7 10
-62 27 -72 18 -2 -3 3 -5 12 -5 10 0 17 -7 17 -15 0 -8 -5 -15 -11 -15 -5 0
-8 4 -5 9 4 5 -3 7 -15 4 -16 -4 -18 -8 -7 -14 8 -6 0 -8 -21 -5 -22 2 -38 10
-43 22 -6 16 -7 15 -5 -6 2 -21 -2 -25 -20 -23 -13 2 -23 -3 -23 -10 0 -8 -4
-7 -10 3 -7 10 -10 11 -10 2 0 -14 -76 -8 -95 8 -9 7 -14 6 -18 -4 -4 -10 -1
-13 9 -9 19 7 18 -14 -2 -25 -35 -19 460 -99 755 -122 172 -13 531 -13 697 0
414 33 819 117 1199 251 136 47 444 174 458 188 15 15 -299 105 -346 100 -7
-1 -73 -26 -147 -56z m-2565 -363 c19 -8 19 -9 -2 -9 -12 -1 -25 4 -28 9 -7
12 2 12 30 0z m58 -17 c-7 -2 -19 -2 -25 0 -7 3 -2 5 12 5 14 0 19 -2 13 -5z"/>
<path d="M1058 1473 c7 -3 16 -2 19 1 4 3 -2 6 -13 5 -11 0 -14 -3 -6 -6z"/>
<path d="M1140 1450 c34 -11 60 -11 35 0 -11 5 -29 8 -40 8 -16 0 -15 -2 5 -8z"/>
<path d="M1220 1430 c14 -4 34 -8 45 -8 16 0 15 2 -5 8 -14 4 -34 8 -45 8 -16
0 -15 -2 5 -8z"/>
<path d="M1310 1410 c14 -4 34 -8 45 -8 16 0 15 2 -5 8 -14 4 -34 8 -45 8 -16
0 -15 -2 5 -8z"/>
</g>
</svg>
